<svg width="96" height="96" xmlns="http://www.w3.org/2000/svg" xmlns:xlink="http://www.w3.org/1999/xlink" xml:space="preserve" overflow="hidden" style="color: red;">
  <g transform="translate(-160 -330)">
    <path fill="currentColor" d="M244.2 358.9C233.6 352.6 221.2 349 208 349 194.8 349 182.4 352.6 171.8 358.9 169.8 360.1 169.2 362.7 170.5 364.6L175.8 372.4C177.2 374.5 180.2 374.8 181.9 373L186.8 368.1C187.6 367.3 188 366.3 188 365.3L188 360.2C194.3 358.1 201 356.9 208 356.9 215 356.9 221.7 358.1 228 360.2L228 365.3C228 366.4 228.4 367.4 229.2 368.1L234.1 373C235.9 374.8 238.8 374.5 240.2 372.4L245.5 364.6C246.8 362.7 246.2 360.1 244.2 358.9Z"/>
    <path fill="currentColor" d="M218 382 214 382 214 378 218 378 218 382ZM218 390 214 390 214 386 218 386 218 390ZM218 398 214 398 214 394 218 394 218 398ZM210 382 206 382 206 378 210 378 210 382ZM210 390 206 390 206 386 210 386 210 390ZM210 398 206 398 206 394 210 394 210 398ZM202 382 198 382 198 378 202 378 202 382ZM202 390 198 390 198 386 202 386 202 390ZM202 398 198 398 198 394 202 394 202 398ZM224 371 224 365C224 363.3 222.7 362 221 362 219.3 362 218 363.3 218 365L218 370 198 370 198 365C198 363.3 196.7 362 195 362 193.3 362 192 363.3 192 365L192 371 180.3 382.7C178.8 384.2 178 386.2 178 388.4L178 406 238 406 238 388.3C238 386.2 237.2 384.1 235.7 382.6L224 371Z"/>
  </g>
</svg>